<mxfile host="app.diagrams.net" agent="Mozilla/5.0 (X11; Linux x86_64) AppleWebKit/537.36 (KHTML, like Gecko) Chrome/128.0.0.0 Safari/537.36 OPR/114.0.0.0" version="26.0.12">
  <diagram name="Página-1" id="LybHadXCt3fGsKPdj9bP">
    <mxGraphModel dx="3894" dy="2856" grid="1" gridSize="10" guides="1" tooltips="1" connect="1" arrows="1" fold="1" page="1" pageScale="1" pageWidth="827" pageHeight="1169" math="0" shadow="0">
      <root>
        <mxCell id="0" />
        <mxCell id="1" parent="0" />
        <mxCell id="AOXXkha6pnkB0oMLbgMj-12" value="View" style="swimlane;fontStyle=0;childLayout=stackLayout;horizontal=1;startSize=26;fillColor=none;horizontalStack=0;resizeParent=1;resizeParentMax=0;resizeLast=0;collapsible=1;marginBottom=0;whiteSpace=wrap;html=1;" parent="1" vertex="1">
          <mxGeometry x="290" y="380" width="320" height="180" as="geometry" />
        </mxCell>
        <mxCell id="AOXXkha6pnkB0oMLbgMj-13" value="&lt;div&gt;+ validar_login()&lt;/div&gt;&lt;div&gt;+ &lt;span class=&quot;hljs-built_in&quot;&gt;renovar_matricula&lt;/span&gt;(&lt;span style=&quot;background-color: transparent; color: light-dark(rgb(0, 0, 0), rgb(255, 255, 255));&quot;&gt;idCli: int&lt;/span&gt;&lt;span style=&quot;background-color: transparent; color: light-dark(rgb(0, 0, 0), rgb(255, 255, 255));&quot;&gt;)&lt;/span&gt;&lt;/div&gt;&lt;div&gt;+ matricular_aluno(&lt;span style=&quot;background-color: transparent; color: light-dark(rgb(0, 0, 0), rgb(255, 255, 255));&quot;&gt;idCli: int, plano: int&lt;/span&gt;&lt;span style=&quot;background-color: transparent; color: light-dark(rgb(0, 0, 0), rgb(255, 255, 255));&quot;&gt;)&lt;/span&gt;&lt;/div&gt;&lt;div&gt;&lt;span style=&quot;background-color: transparent; color: light-dark(rgb(0, 0, 0), rgb(255, 255, 255));&quot;&gt;+ realizar_pagamento(&lt;/span&gt;&lt;span style=&quot;background-color: transparent; color: light-dark(rgb(0, 0, 0), rgb(255, 255, 255));&quot;&gt;idCli: int&lt;/span&gt;&lt;span style=&quot;background-color: transparent; color: light-dark(rgb(0, 0, 0), rgb(255, 255, 255));&quot;&gt;)&lt;/span&gt;&lt;/div&gt;&lt;div&gt;+ &lt;span class=&quot;hljs-built_in&quot;&gt;cancelar_matricula&lt;/span&gt;(&lt;span style=&quot;background-color: transparent; color: light-dark(rgb(0, 0, 0), rgb(255, 255, 255));&quot;&gt;idCli: int&lt;/span&gt;&lt;span style=&quot;background-color: transparent; color: light-dark(rgb(0, 0, 0), rgb(255, 255, 255));&quot;&gt;)&lt;/span&gt;&lt;/div&gt;&lt;div&gt;+ &lt;span class=&quot;hljs-built_in&quot;&gt;calcular_rendimento_mes&lt;/span&gt;()&lt;br&gt;&lt;/div&gt;&lt;div&gt;+ deventes_do_mes()&lt;/div&gt;&lt;div&gt;+ pagamentos_do_mes()&lt;/div&gt;&lt;div&gt;+ renovar_treino(&lt;span style=&quot;background-color: transparent; color: light-dark(rgb(0, 0, 0), rgb(255, 255, 255));&quot;&gt;idCli: int&lt;/span&gt;&lt;span style=&quot;background-color: transparent; color: light-dark(rgb(0, 0, 0), rgb(255, 255, 255));&quot;&gt;)&lt;/span&gt;&lt;/div&gt;&lt;div&gt;+ renovar_mediçao(&lt;span style=&quot;background-color: transparent; color: light-dark(rgb(0, 0, 0), rgb(255, 255, 255));&quot;&gt;idCli: int&lt;/span&gt;&lt;span style=&quot;background-color: transparent; color: light-dark(rgb(0, 0, 0), rgb(255, 255, 255));&quot;&gt;)&lt;/span&gt;&lt;/div&gt;" style="text;strokeColor=none;fillColor=none;align=left;verticalAlign=top;spacingLeft=4;spacingRight=4;overflow=hidden;rotatable=0;points=[[0,0.5],[1,0.5]];portConstraint=eastwest;whiteSpace=wrap;html=1;" parent="AOXXkha6pnkB0oMLbgMj-12" vertex="1">
          <mxGeometry y="26" width="320" height="154" as="geometry" />
        </mxCell>
        <mxCell id="AOXXkha6pnkB0oMLbgMj-22" value="viewcliente" style="swimlane;fontStyle=0;childLayout=stackLayout;horizontal=1;startSize=26;fillColor=none;horizontalStack=0;resizeParent=1;resizeParentMax=0;resizeLast=0;collapsible=1;marginBottom=0;whiteSpace=wrap;html=1;" parent="1" vertex="1">
          <mxGeometry x="290" y="-160" width="320" height="170" as="geometry" />
        </mxCell>
        <mxCell id="AOXXkha6pnkB0oMLbgMj-23" value="+ validar_login(cpf : str, senha : str)&lt;div&gt;&lt;div&gt;+ listar_pagamentos(&lt;span style=&quot;background-color: transparent; color: light-dark(rgb(0, 0, 0), rgb(255, 255, 255));&quot;&gt;idCli: int&lt;/span&gt;&lt;span style=&quot;background-color: transparent; color: light-dark(rgb(0, 0, 0), rgb(255, 255, 255));&quot;&gt;)&lt;/span&gt;&lt;/div&gt;&lt;div&gt;&lt;div&gt;+ pagar_mensalidade(&lt;span style=&quot;background-color: transparent; color: light-dark(rgb(0, 0, 0), rgb(255, 255, 255));&quot;&gt;idCli: int&lt;/span&gt;&lt;span style=&quot;background-color: transparent; color: light-dark(rgb(0, 0, 0), rgb(255, 255, 255));&quot;&gt;)&lt;/span&gt;&lt;/div&gt;&lt;div&gt;+ listar_treinos(&lt;span style=&quot;background-color: transparent; color: light-dark(rgb(0, 0, 0), rgb(255, 255, 255));&quot;&gt;idCli: int&lt;/span&gt;&lt;span style=&quot;background-color: transparent; color: light-dark(rgb(0, 0, 0), rgb(255, 255, 255));&quot;&gt;)&lt;/span&gt;&lt;/div&gt;&lt;div&gt;+ listar_treinos passados(&lt;span style=&quot;background-color: transparent; color: light-dark(rgb(0, 0, 0), rgb(255, 255, 255));&quot;&gt;idCli: int&lt;/span&gt;&lt;span style=&quot;background-color: transparent; color: light-dark(rgb(0, 0, 0), rgb(255, 255, 255));&quot;&gt;)&lt;/span&gt;&lt;/div&gt;&lt;div&gt;+ listar_matricula(&lt;span style=&quot;background-color: transparent; color: light-dark(rgb(0, 0, 0), rgb(255, 255, 255));&quot;&gt;idCli: int&lt;/span&gt;&lt;span style=&quot;background-color: transparent; color: light-dark(rgb(0, 0, 0), rgb(255, 255, 255));&quot;&gt;)&lt;/span&gt;&lt;/div&gt;&lt;div&gt;+ listar_matriculas_passadas(&lt;span style=&quot;background-color: transparent; color: light-dark(rgb(0, 0, 0), rgb(255, 255, 255));&quot;&gt;idCli: int&lt;/span&gt;&lt;span style=&quot;background-color: transparent; color: light-dark(rgb(0, 0, 0), rgb(255, 255, 255));&quot;&gt;)&lt;/span&gt;&lt;/div&gt;&lt;/div&gt;&lt;/div&gt;&lt;div&gt;+ listar_mediçoes(&lt;span style=&quot;background-color: transparent; color: light-dark(rgb(0, 0, 0), rgb(255, 255, 255));&quot;&gt;idCli: int&lt;/span&gt;&lt;span style=&quot;background-color: transparent; color: light-dark(rgb(0, 0, 0), rgb(255, 255, 255));&quot;&gt;)&lt;/span&gt;&lt;/div&gt;&lt;div&gt;+ listar_mediçoes_passadas(&lt;span style=&quot;background-color: transparent; color: light-dark(rgb(0, 0, 0), rgb(255, 255, 255));&quot;&gt;idCli: int&lt;/span&gt;&lt;span style=&quot;background-color: transparent; color: light-dark(rgb(0, 0, 0), rgb(255, 255, 255));&quot;&gt;)&lt;/span&gt;&lt;/div&gt;" style="text;strokeColor=none;fillColor=none;align=left;verticalAlign=top;spacingLeft=4;spacingRight=4;overflow=hidden;rotatable=0;points=[[0,0.5],[1,0.5]];portConstraint=eastwest;whiteSpace=wrap;html=1;" parent="AOXXkha6pnkB0oMLbgMj-22" vertex="1">
          <mxGeometry y="26" width="320" height="144" as="geometry" />
        </mxCell>
        <mxCell id="f1xTT2eEhIV9PKECYVw_-1" value="viewAlunos" style="swimlane;fontStyle=0;childLayout=stackLayout;horizontal=1;startSize=26;fillColor=none;horizontalStack=0;resizeParent=1;resizeParentMax=0;resizeLast=0;collapsible=1;marginBottom=0;whiteSpace=wrap;html=1;" vertex="1" parent="1">
          <mxGeometry x="-160" y="70" width="320" height="180" as="geometry" />
        </mxCell>
        <mxCell id="f1xTT2eEhIV9PKECYVw_-2" value="+ inserir_aluno(nm: str, email: str, senha: str, tel: str, dtCad: str, dtNasc: str, sexo: str, rg: str, prof: str, bairro: str, cep: str, rua: str, num: str)&lt;div&gt;&lt;div&gt;+&amp;nbsp;&lt;span class=&quot;hljs-built_in&quot;&gt;excluir_aluno&lt;/span&gt;(id: int)&lt;br&gt;&lt;/div&gt;&lt;div&gt;&lt;span style=&quot;background-color: transparent; color: light-dark(rgb(0, 0, 0), rgb(255, 255, 255));&quot;&gt;+&amp;nbsp;&lt;/span&gt;&lt;span style=&quot;background-color: transparent; color: light-dark(rgb(0, 0, 0), rgb(255, 255, 255));&quot; class=&quot;hljs-built_in&quot;&gt;atualizar_aluno&lt;/span&gt;&lt;span style=&quot;background-color: transparent; color: light-dark(rgb(0, 0, 0), rgb(255, 255, 255));&quot;&gt;(id: int, nm: str, email: str, senha: str, tel: str, dtCad: str, dtNasc: str, sexo: str, rg: str, prof: str, bairro: str, cep: str, rua: str, num: str)&lt;/span&gt;&lt;br&gt;&lt;/div&gt;&lt;div&gt;&lt;span style=&quot;background-color: transparent; color: light-dark(rgb(0, 0, 0), rgb(255, 255, 255));&quot; class=&quot;hljs-built_in&quot;&gt;+ listar_aluno&lt;/span&gt;&lt;span style=&quot;background-color: transparent; color: light-dark(rgb(0, 0, 0), rgb(255, 255, 255));&quot;&gt;()&lt;/span&gt;&lt;br&gt;&lt;/div&gt;&lt;div&gt;&lt;span style=&quot;background-color: transparent; color: light-dark(rgb(0, 0, 0), rgb(255, 255, 255));&quot;&gt;+&amp;nbsp;&lt;/span&gt;&lt;span style=&quot;background-color: transparent; color: light-dark(rgb(0, 0, 0), rgb(255, 255, 255));&quot; class=&quot;hljs-built_in&quot;&gt;buscar_aluno&lt;/span&gt;&lt;span style=&quot;background-color: transparent; color: light-dark(rgb(0, 0, 0), rgb(255, 255, 255));&quot;&gt;(id: int)&lt;/span&gt;&lt;br&gt;&lt;/div&gt;&lt;div&gt;&lt;span style=&quot;background-color: transparent; color: light-dark(rgb(0, 0, 0), rgb(255, 255, 255));&quot;&gt;+ buscar_endereço_aluno(id_a: int)&lt;/span&gt;&lt;br&gt;&lt;/div&gt;&lt;/div&gt;" style="text;strokeColor=none;fillColor=none;align=left;verticalAlign=top;spacingLeft=4;spacingRight=4;overflow=hidden;rotatable=0;points=[[0,0.5],[1,0.5]];portConstraint=eastwest;whiteSpace=wrap;html=1;" vertex="1" parent="f1xTT2eEhIV9PKECYVw_-1">
          <mxGeometry y="26" width="320" height="154" as="geometry" />
        </mxCell>
        <mxCell id="f1xTT2eEhIV9PKECYVw_-5" value="viewTreinoAluno" style="swimlane;fontStyle=0;childLayout=stackLayout;horizontal=1;startSize=26;fillColor=none;horizontalStack=0;resizeParent=1;resizeParentMax=0;resizeLast=0;collapsible=1;marginBottom=0;whiteSpace=wrap;html=1;" vertex="1" parent="1">
          <mxGeometry x="740" y="70" width="320" height="180" as="geometry" />
        </mxCell>
        <mxCell id="f1xTT2eEhIV9PKECYVw_-6" value="&lt;div&gt;+ inserir_treinoaluno(id: int, idAluno: int, dt: str, atv: boolean)&lt;br&gt;&lt;/div&gt;&lt;div&gt;+&amp;nbsp;&lt;span class=&quot;hljs-built_in&quot;&gt;excluir_treinoaluno&lt;/span&gt;(id: int)&lt;br&gt;&lt;/div&gt;&lt;div&gt;+&amp;nbsp;&lt;span class=&quot;hljs-built_in&quot;&gt;listar_treinoaluno&lt;/span&gt;()&lt;br&gt;&lt;/div&gt;&lt;div&gt;+&amp;nbsp;&lt;span class=&quot;hljs-built_in&quot;&gt;buscar_treinoaluno&lt;/span&gt;(id: int)&lt;br&gt;&lt;/div&gt;&lt;div&gt;+&amp;nbsp;&lt;span class=&quot;hljs-built_in&quot;&gt;atualizar_treinoaluno&lt;/span&gt;(id: int, idAluno: int, dt: str, atv: boolean)&lt;br&gt;&lt;/div&gt;" style="text;strokeColor=none;fillColor=none;align=left;verticalAlign=top;spacingLeft=4;spacingRight=4;overflow=hidden;rotatable=0;points=[[0,0.5],[1,0.5]];portConstraint=eastwest;whiteSpace=wrap;html=1;" vertex="1" parent="f1xTT2eEhIV9PKECYVw_-5">
          <mxGeometry y="26" width="320" height="154" as="geometry" />
        </mxCell>
        <mxCell id="f1xTT2eEhIV9PKECYVw_-7" value="viewtreino" style="swimlane;fontStyle=0;childLayout=stackLayout;horizontal=1;startSize=26;fillColor=none;horizontalStack=0;resizeParent=1;resizeParentMax=0;resizeLast=0;collapsible=1;marginBottom=0;whiteSpace=wrap;html=1;" vertex="1" parent="1">
          <mxGeometry x="290" y="70" width="320" height="180" as="geometry" />
        </mxCell>
        <mxCell id="f1xTT2eEhIV9PKECYVw_-8" value="&lt;div&gt;+ inserir_treino(id: int, idMsc: int, idTr: int, desc: str)&lt;br&gt;&lt;/div&gt;&lt;div&gt;+&amp;nbsp;&lt;span class=&quot;hljs-built_in&quot;&gt;excluir_treino&lt;/span&gt;(id: int)&lt;br&gt;&lt;/div&gt;&lt;div&gt;+&amp;nbsp;&lt;span class=&quot;hljs-built_in&quot;&gt;listar_treino&lt;/span&gt;()&lt;br&gt;&lt;/div&gt;&lt;div&gt;+&amp;nbsp;&lt;span class=&quot;hljs-built_in&quot;&gt;atualizar_treino&lt;/span&gt;(id: int, idMsc: int, idTr: int, desc: str)&lt;br&gt;&lt;/div&gt;&lt;div&gt;+ buscar_treino(id: int)&lt;/div&gt;&lt;div&gt;+&amp;nbsp;&lt;span class=&quot;hljs-built_in&quot;&gt;listar_treinos_passados_aluno&lt;/span&gt;(id: int)&lt;br&gt;&lt;/div&gt;" style="text;strokeColor=none;fillColor=none;align=left;verticalAlign=top;spacingLeft=4;spacingRight=4;overflow=hidden;rotatable=0;points=[[0,0.5],[1,0.5]];portConstraint=eastwest;whiteSpace=wrap;html=1;" vertex="1" parent="f1xTT2eEhIV9PKECYVw_-7">
          <mxGeometry y="26" width="320" height="154" as="geometry" />
        </mxCell>
        <mxCell id="f1xTT2eEhIV9PKECYVw_-10" value="viewmusculo" style="swimlane;fontStyle=0;childLayout=stackLayout;horizontal=1;startSize=26;fillColor=none;horizontalStack=0;resizeParent=1;resizeParentMax=0;resizeLast=0;collapsible=1;marginBottom=0;whiteSpace=wrap;html=1;" vertex="1" parent="1">
          <mxGeometry x="740" y="710" width="320" height="160" as="geometry" />
        </mxCell>
        <mxCell id="f1xTT2eEhIV9PKECYVw_-11" value="+ inserir_musculo(id: int, nm: str)&lt;div&gt;+&amp;nbsp;&lt;span class=&quot;hljs-built_in&quot;&gt;excluir_musculo&lt;/span&gt;(id: int)&lt;br&gt;&lt;/div&gt;&lt;div&gt;+&amp;nbsp;&lt;span class=&quot;hljs-built_in&quot;&gt;listar_musculo&lt;/span&gt;()&lt;br&gt;&lt;/div&gt;&lt;div&gt;+&amp;nbsp;&lt;span class=&quot;hljs-built_in&quot;&gt;atualizar_musculo&lt;/span&gt;(id: int, nm: str)&lt;br&gt;&lt;/div&gt;&lt;div&gt;+ buscar_musculo(id: int)&lt;/div&gt;" style="text;strokeColor=none;fillColor=none;align=left;verticalAlign=top;spacingLeft=4;spacingRight=4;overflow=hidden;rotatable=0;points=[[0,0.5],[1,0.5]];portConstraint=eastwest;whiteSpace=wrap;html=1;" vertex="1" parent="f1xTT2eEhIV9PKECYVw_-10">
          <mxGeometry y="26" width="320" height="134" as="geometry" />
        </mxCell>
        <mxCell id="f1xTT2eEhIV9PKECYVw_-12" value="viewmedição" style="swimlane;fontStyle=0;childLayout=stackLayout;horizontal=1;startSize=26;fillColor=none;horizontalStack=0;resizeParent=1;resizeParentMax=0;resizeLast=0;collapsible=1;marginBottom=0;whiteSpace=wrap;html=1;" vertex="1" parent="1">
          <mxGeometry x="290" y="700" width="320" height="170" as="geometry" />
        </mxCell>
        <mxCell id="f1xTT2eEhIV9PKECYVw_-13" value="&lt;div&gt;+ inserir_medicão(id: int, idCli: int, dt: str, atv: bool)&lt;/div&gt;&lt;div&gt;+ excluir_medicão(&lt;span style=&quot;background-color: transparent; color: light-dark(rgb(0, 0, 0), rgb(255, 255, 255));&quot;&gt;id: int&lt;/span&gt;&lt;span style=&quot;background-color: transparent; color: light-dark(rgb(0, 0, 0), rgb(255, 255, 255));&quot;&gt;)&lt;/span&gt;&lt;/div&gt;&lt;div&gt;+ listar_medicão()&lt;/div&gt;&lt;div&gt;+ atualizar_medicão(id: int, idCli: int, dt: str, atv:bool)&lt;/div&gt;&lt;div&gt;+ buscar_medicão(&lt;span style=&quot;background-color: transparent; color: light-dark(rgb(0, 0, 0), rgb(255, 255, 255));&quot;&gt;id: int&lt;/span&gt;&lt;span style=&quot;background-color: transparent; color: light-dark(rgb(0, 0, 0), rgb(255, 255, 255));&quot;&gt;)&lt;/span&gt;&lt;/div&gt;&lt;div&gt;+&amp;nbsp;&lt;span class=&quot;hljs-built_in&quot;&gt;listar_medicoes_passadas_aluno&lt;/span&gt;(&lt;span style=&quot;background-color: transparent; color: light-dark(rgb(0, 0, 0), rgb(255, 255, 255));&quot;&gt;id: int&lt;/span&gt;&lt;span style=&quot;background-color: transparent; color: light-dark(rgb(0, 0, 0), rgb(255, 255, 255));&quot;&gt;)&lt;/span&gt;&lt;/div&gt;" style="text;strokeColor=none;fillColor=none;align=left;verticalAlign=top;spacingLeft=4;spacingRight=4;overflow=hidden;rotatable=0;points=[[0,0.5],[1,0.5]];portConstraint=eastwest;whiteSpace=wrap;html=1;" vertex="1" parent="f1xTT2eEhIV9PKECYVw_-12">
          <mxGeometry y="26" width="320" height="144" as="geometry" />
        </mxCell>
        <mxCell id="f1xTT2eEhIV9PKECYVw_-14" value="viewmedida" style="swimlane;fontStyle=0;childLayout=stackLayout;horizontal=1;startSize=26;fillColor=none;horizontalStack=0;resizeParent=1;resizeParentMax=0;resizeLast=0;collapsible=1;marginBottom=0;whiteSpace=wrap;html=1;" vertex="1" parent="1">
          <mxGeometry x="-160" y="700" width="320" height="170" as="geometry" />
        </mxCell>
        <mxCell id="f1xTT2eEhIV9PKECYVw_-15" value="&lt;div&gt;+ inserir_medida(id: int, idMed: int, idParte: int, val: double)&lt;/div&gt;&lt;div&gt;+ excluir_medida(id: int)&lt;/div&gt;&lt;div&gt;+ listar_medida()&lt;/div&gt;&lt;div&gt;+ atualizar_medida(id: int, idMed: int, idParte: int, val: double)&lt;/div&gt;&lt;div&gt;+ buscar_medida(id: int)&lt;/div&gt;" style="text;strokeColor=none;fillColor=none;align=left;verticalAlign=top;spacingLeft=4;spacingRight=4;overflow=hidden;rotatable=0;points=[[0,0.5],[1,0.5]];portConstraint=eastwest;whiteSpace=wrap;html=1;" vertex="1" parent="f1xTT2eEhIV9PKECYVw_-14">
          <mxGeometry y="26" width="320" height="144" as="geometry" />
        </mxCell>
        <mxCell id="f1xTT2eEhIV9PKECYVw_-16" value="viewpartcorpo" style="swimlane;fontStyle=0;childLayout=stackLayout;horizontal=1;startSize=26;fillColor=none;horizontalStack=0;resizeParent=1;resizeParentMax=0;resizeLast=0;collapsible=1;marginBottom=0;whiteSpace=wrap;html=1;" vertex="1" parent="1">
          <mxGeometry x="740" y="290" width="320" height="180" as="geometry" />
        </mxCell>
        <mxCell id="f1xTT2eEhIV9PKECYVw_-17" value="&lt;div&gt;+ inserir_partcorpo(id: int, nm: str, un: str)&lt;/div&gt;&lt;div&gt;+ excluir_partcorpo(id: int)&lt;/div&gt;&lt;div&gt;+ listar_partcorpo()&lt;/div&gt;&lt;div&gt;+ atualizar_partcorpo(id: int, nm: str, un: str)&lt;/div&gt;&lt;div&gt;+ buscar_partcorpo(id: int)&lt;/div&gt;" style="text;strokeColor=none;fillColor=none;align=left;verticalAlign=top;spacingLeft=4;spacingRight=4;overflow=hidden;rotatable=0;points=[[0,0.5],[1,0.5]];portConstraint=eastwest;whiteSpace=wrap;html=1;" vertex="1" parent="f1xTT2eEhIV9PKECYVw_-16">
          <mxGeometry y="26" width="320" height="154" as="geometry" />
        </mxCell>
        <mxCell id="f1xTT2eEhIV9PKECYVw_-18" value="viewplano" style="swimlane;fontStyle=0;childLayout=stackLayout;horizontal=1;startSize=26;fillColor=none;horizontalStack=0;resizeParent=1;resizeParentMax=0;resizeLast=0;collapsible=1;marginBottom=0;whiteSpace=wrap;html=1;" vertex="1" parent="1">
          <mxGeometry x="-160" y="290" width="320" height="170" as="geometry" />
        </mxCell>
        <mxCell id="f1xTT2eEhIV9PKECYVw_-19" value="&lt;div&gt;+ inserir_plano(id: int, nm: str, val: double, tmp: str)&lt;/div&gt;&lt;div&gt;+ excluir_plano(id: int)&lt;/div&gt;&lt;div&gt;+ atualizar_plano(id: int, nm: str, val: double, tmp: str)&lt;/div&gt;&lt;div&gt;+ listar_plano()&lt;/div&gt;&lt;div&gt;+ buscar_plano(id: int)&lt;/div&gt;" style="text;strokeColor=none;fillColor=none;align=left;verticalAlign=top;spacingLeft=4;spacingRight=4;overflow=hidden;rotatable=0;points=[[0,0.5],[1,0.5]];portConstraint=eastwest;whiteSpace=wrap;html=1;" vertex="1" parent="f1xTT2eEhIV9PKECYVw_-18">
          <mxGeometry y="26" width="320" height="144" as="geometry" />
        </mxCell>
        <mxCell id="f1xTT2eEhIV9PKECYVw_-20" value="viewMatricula" style="swimlane;fontStyle=0;childLayout=stackLayout;horizontal=1;startSize=26;fillColor=none;horizontalStack=0;resizeParent=1;resizeParentMax=0;resizeLast=0;collapsible=1;marginBottom=0;whiteSpace=wrap;html=1;" vertex="1" parent="1">
          <mxGeometry x="740" y="495" width="320" height="180" as="geometry" />
        </mxCell>
        <mxCell id="f1xTT2eEhIV9PKECYVw_-21" value="&lt;div&gt;+ inserir_matricula(id: int, idCli: int, plano: int, dt: str, val: str, atv: bool)&lt;/div&gt;&lt;div&gt;+ excluir_matricula(id: int)&lt;/div&gt;&lt;div&gt;+ atualizar_matricula(id: int, idCli: int, plano: int, dt: str, val: str&lt;span style=&quot;background-color: transparent; color: light-dark(rgb(0, 0, 0), rgb(255, 255, 255));&quot;&gt;, atv: bool&lt;/span&gt;&lt;span style=&quot;background-color: transparent; color: light-dark(rgb(0, 0, 0), rgb(255, 255, 255));&quot;&gt;)&lt;/span&gt;&lt;/div&gt;&lt;div&gt;+ listar_matricula()&lt;/div&gt;&lt;div&gt;+ buscar_matricula(id: int)&lt;br&gt;&lt;/div&gt;" style="text;strokeColor=none;fillColor=none;align=left;verticalAlign=top;spacingLeft=4;spacingRight=4;overflow=hidden;rotatable=0;points=[[0,0.5],[1,0.5]];portConstraint=eastwest;whiteSpace=wrap;html=1;" vertex="1" parent="f1xTT2eEhIV9PKECYVw_-20">
          <mxGeometry y="26" width="320" height="154" as="geometry" />
        </mxCell>
        <mxCell id="f1xTT2eEhIV9PKECYVw_-22" value="viewpagamento" style="swimlane;fontStyle=0;childLayout=stackLayout;horizontal=1;startSize=26;fillColor=none;horizontalStack=0;resizeParent=1;resizeParentMax=0;resizeLast=0;collapsible=1;marginBottom=0;whiteSpace=wrap;html=1;" vertex="1" parent="1">
          <mxGeometry x="-160" y="495" width="320" height="160" as="geometry" />
        </mxCell>
        <mxCell id="f1xTT2eEhIV9PKECYVw_-23" value="&lt;div&gt;+ inserir_pagamento(id: int, idMat: int, idCli: int, ems: str, dtPg: str, val: double, pago: boolean)&lt;/div&gt;&lt;div&gt;+ excluir_pagamento(id: int)&lt;/div&gt;&lt;div&gt;+ atualizar_pagamento(id: int, idMat: int, idCli: int, ems: str, dtPg: str, val: double, pago: boolean)&lt;/div&gt;&lt;div&gt;+ listar_pagamento()&lt;/div&gt;&lt;div&gt;+ buscar_pagamento(id: int)&lt;/div&gt;" style="text;strokeColor=none;fillColor=none;align=left;verticalAlign=top;spacingLeft=4;spacingRight=4;overflow=hidden;rotatable=0;points=[[0,0.5],[1,0.5]];portConstraint=eastwest;whiteSpace=wrap;html=1;" vertex="1" parent="f1xTT2eEhIV9PKECYVw_-22">
          <mxGeometry y="26" width="320" height="134" as="geometry" />
        </mxCell>
        <mxCell id="f1xTT2eEhIV9PKECYVw_-30" value="" style="endArrow=open;html=1;rounded=0;exitX=0.5;exitY=0;exitDx=0;exitDy=0;endFill=0;dashed=1;" edge="1" parent="1" source="AOXXkha6pnkB0oMLbgMj-12" target="f1xTT2eEhIV9PKECYVw_-8">
          <mxGeometry width="50" height="50" relative="1" as="geometry">
            <mxPoint x="241" y="252" as="sourcePoint" />
            <mxPoint x="240" y="380" as="targetPoint" />
          </mxGeometry>
        </mxCell>
        <mxCell id="f1xTT2eEhIV9PKECYVw_-35" value="" style="endArrow=open;html=1;rounded=0;exitX=0.5;exitY=0;exitDx=0;exitDy=0;endFill=0;dashed=1;entryX=-0.006;entryY=0.99;entryDx=0;entryDy=0;entryPerimeter=0;" edge="1" parent="1" target="f1xTT2eEhIV9PKECYVw_-6">
          <mxGeometry width="50" height="50" relative="1" as="geometry">
            <mxPoint x="610" y="380" as="sourcePoint" />
            <mxPoint x="610" y="250" as="targetPoint" />
          </mxGeometry>
        </mxCell>
        <mxCell id="f1xTT2eEhIV9PKECYVw_-36" value="" style="endArrow=open;html=1;rounded=0;exitX=0.5;exitY=0;exitDx=0;exitDy=0;endFill=0;dashed=1;entryX=1.003;entryY=1.013;entryDx=0;entryDy=0;entryPerimeter=0;" edge="1" parent="1" target="f1xTT2eEhIV9PKECYVw_-2">
          <mxGeometry width="50" height="50" relative="1" as="geometry">
            <mxPoint x="290" y="382" as="sourcePoint" />
            <mxPoint x="418" y="250" as="targetPoint" />
          </mxGeometry>
        </mxCell>
        <mxCell id="f1xTT2eEhIV9PKECYVw_-37" value="" style="endArrow=open;html=1;rounded=0;exitX=0;exitY=0.5;exitDx=0;exitDy=0;endFill=0;dashed=1;entryX=1;entryY=0.5;entryDx=0;entryDy=0;" edge="1" parent="1" source="AOXXkha6pnkB0oMLbgMj-13" target="f1xTT2eEhIV9PKECYVw_-19">
          <mxGeometry width="50" height="50" relative="1" as="geometry">
            <mxPoint x="279" y="460" as="sourcePoint" />
            <mxPoint x="150" y="330" as="targetPoint" />
          </mxGeometry>
        </mxCell>
        <mxCell id="f1xTT2eEhIV9PKECYVw_-38" value="" style="endArrow=open;html=1;rounded=0;exitX=0;exitY=0.5;exitDx=0;exitDy=0;endFill=0;dashed=1;entryX=1;entryY=0.5;entryDx=0;entryDy=0;" edge="1" parent="1" source="AOXXkha6pnkB0oMLbgMj-13" target="f1xTT2eEhIV9PKECYVw_-23">
          <mxGeometry width="50" height="50" relative="1" as="geometry">
            <mxPoint x="300" y="493" as="sourcePoint" />
            <mxPoint x="170" y="398" as="targetPoint" />
          </mxGeometry>
        </mxCell>
        <mxCell id="f1xTT2eEhIV9PKECYVw_-39" style="edgeStyle=none;shape=connector;rounded=0;orthogonalLoop=1;jettySize=auto;html=1;exitX=1;exitY=0.5;exitDx=0;exitDy=0;entryX=0;entryY=0.5;entryDx=0;entryDy=0;dashed=1;strokeColor=default;align=center;verticalAlign=middle;fontFamily=Helvetica;fontSize=11;fontColor=default;labelBackgroundColor=default;endArrow=open;endFill=0;" edge="1" parent="1" source="AOXXkha6pnkB0oMLbgMj-13" target="f1xTT2eEhIV9PKECYVw_-17">
          <mxGeometry relative="1" as="geometry" />
        </mxCell>
        <mxCell id="f1xTT2eEhIV9PKECYVw_-40" style="edgeStyle=none;shape=connector;rounded=0;orthogonalLoop=1;jettySize=auto;html=1;exitX=1;exitY=0.5;exitDx=0;exitDy=0;entryX=0;entryY=0.5;entryDx=0;entryDy=0;dashed=1;strokeColor=default;align=center;verticalAlign=middle;fontFamily=Helvetica;fontSize=11;fontColor=default;labelBackgroundColor=default;endArrow=open;endFill=0;" edge="1" parent="1" source="AOXXkha6pnkB0oMLbgMj-13" target="f1xTT2eEhIV9PKECYVw_-21">
          <mxGeometry relative="1" as="geometry" />
        </mxCell>
        <mxCell id="f1xTT2eEhIV9PKECYVw_-41" style="edgeStyle=none;shape=connector;rounded=0;orthogonalLoop=1;jettySize=auto;html=1;exitX=1;exitY=0.5;exitDx=0;exitDy=0;entryX=0;entryY=0;entryDx=0;entryDy=0;dashed=1;strokeColor=default;align=center;verticalAlign=middle;fontFamily=Helvetica;fontSize=11;fontColor=default;labelBackgroundColor=default;endArrow=open;endFill=0;" edge="1" parent="1" target="f1xTT2eEhIV9PKECYVw_-10">
          <mxGeometry relative="1" as="geometry">
            <mxPoint x="610" y="560" as="sourcePoint" />
            <mxPoint x="740" y="675" as="targetPoint" />
          </mxGeometry>
        </mxCell>
        <mxCell id="f1xTT2eEhIV9PKECYVw_-43" style="edgeStyle=none;shape=connector;rounded=0;orthogonalLoop=1;jettySize=auto;html=1;exitX=1;exitY=0.5;exitDx=0;exitDy=0;entryX=0.5;entryY=0;entryDx=0;entryDy=0;dashed=1;strokeColor=default;align=center;verticalAlign=middle;fontFamily=Helvetica;fontSize=11;fontColor=default;labelBackgroundColor=default;endArrow=open;endFill=0;" edge="1" parent="1" target="f1xTT2eEhIV9PKECYVw_-12">
          <mxGeometry relative="1" as="geometry">
            <mxPoint x="450" y="560" as="sourcePoint" />
            <mxPoint x="580" y="710" as="targetPoint" />
          </mxGeometry>
        </mxCell>
        <mxCell id="f1xTT2eEhIV9PKECYVw_-44" style="edgeStyle=none;shape=connector;rounded=0;orthogonalLoop=1;jettySize=auto;html=1;exitX=1;exitY=0.5;exitDx=0;exitDy=0;entryX=1;entryY=0;entryDx=0;entryDy=0;dashed=1;strokeColor=default;align=center;verticalAlign=middle;fontFamily=Helvetica;fontSize=11;fontColor=default;labelBackgroundColor=default;endArrow=open;endFill=0;" edge="1" parent="1" target="f1xTT2eEhIV9PKECYVw_-14">
          <mxGeometry relative="1" as="geometry">
            <mxPoint x="290" y="560" as="sourcePoint" />
            <mxPoint x="420" y="710" as="targetPoint" />
          </mxGeometry>
        </mxCell>
      </root>
    </mxGraphModel>
  </diagram>
</mxfile>
